<svg id="Layer_1" data-name="Layer 1" xmlns="http://www.w3.org/2000/svg" viewBox="0 0 269.17 141.36"><title>donna-logo</title><path d="M120.09,33.53q28.09,0,46.15,16.3t18.06,42.3q0,26-18.06,42.38T120.09,150.9H78.79V33.53Zm-12.71,95.63h12.71q16.38,0,25.75-10t9.36-26.92q0-16.89-9.36-26.92t-25.75-10H107.38Z" transform="translate(-6.58 -20.64)" style="fill:#e31b6d"/><path d="M273.59,84.62,225.69,23.4c-2.88-3.68-7.56-3.68-10.44,0a11.39,11.39,0,0,0,0,13.35l42.71,54.57-42.71,54.57a11.39,11.39,0,0,0,0,13.35c2.88,3.68,7.56,3.68,10.44,0L273.59,98a11.52,11.52,0,0,0,0-13.42Z" transform="translate(-6.58 -20.64)" style="fill:#e31b6d"/><path d="M6.58,91.34A10.83,10.83,0,0,0,8.74,98l47.91,61.2c2.88,3.68,7.56,3.68,10.44,0a11.39,11.39,0,0,0,0-13.35L24.38,91.32,67.09,36.74a11.39,11.39,0,0,0,0-13.35c-2.88-3.68-7.56-3.68-10.44,0L8.74,84.62A10.92,10.92,0,0,0,6.58,91.34Z" transform="translate(-6.58 -20.64)" style="fill:#e31b6d"/><rect x="190.19" y="36.15" width="12.74" height="110.34" rx="5" ry="5" transform="translate(21.76 -65.98) rotate(14.17)" style="fill:#e31b6d"/></svg>