<?xml version="1.0" encoding="utf-8"?>
<!-- Generator: Adobe Illustrator 20.1.0, SVG Export Plug-In . SVG Version: 6.00 Build 0)  -->
<svg version="1.1" id="Capa_1" xmlns="http://www.w3.org/2000/svg" xmlns:xlink="http://www.w3.org/1999/xlink" x="0px" y="0px"
	 viewBox="0 0 414.2 414.2" style="enable-background:new 0 0 414.2 414.2;" xml:space="preserve">
<style type="text/css">
	.st0{fill:#E31B6D;}
</style>
<path class="st0" d="M301.8,23.6C272.7,8.2,240.3,0.1,207.4,0C95.3,0,4.4,90.8,4.4,202.9c0,52.9,20.6,103.7,57.6,141.6l-8.5,60.3
	c-0.7,4.4,2.2,8.5,6.5,9.2c2,0.3,4.1-0.1,5.8-1.2l46.1-30.6c99.1,52.5,221.9,14.7,274.3-84.4S400.9,76.1,301.8,23.6z M340.4,334.3
	c-35.1,35.6-83,55.7-133,55.7c-32.2,0-63.9-8.2-91.9-24c-2.5-1.4-5.5-1.4-8,0l-36.1,23.4l7-46.5c0.3-2.5-0.5-5-2.3-6.8
	C2.5,263.7,1.7,145.3,74.2,71.8S265-2.6,338.6,69.9S412.9,260.8,340.4,334.3z"/>
</svg>
